<?xml version="1.0" encoding="UTF-8" standalone="no"?>
<!DOCTYPE svg PUBLIC "-//W3C//DTD SVG 1.1//EN"
 "http://www.w3.org/Graphics/SVG/1.1/DTD/svg11.dtd">
<!-- Generated by graphviz version 2.40.1 (20161225.0304)
 -->
<!-- Title: G Pages: 1 -->
<svg width="204pt" height="130pt"
 viewBox="0.00 0.00 204.12 130.00" xmlns="http://www.w3.org/2000/svg" xmlns:xlink="http://www.w3.org/1999/xlink">
<g id="graph0" class="graph" transform="scale(1 1) rotate(0) translate(4 126)">
<title>G</title>
<polygon fill="#ffffff" stroke="transparent" points="-4,4 -4,-126 200.1185,-126 200.1185,4 -4,4"/>
<!-- A0 -->
<g id="node1" class="node">
<title>A0</title>
<polygon fill="none" stroke="#000000" points="100.6807,-122 .1063,-122 .1063,-86 100.6807,-86 100.6807,-122"/>
<text text-anchor="middle" x="50.3935" y="-101" font-family="Helvetica,sans-Serif" font-size="10.00" fill="#000000">BinaryTreeNode</text>
</g>
<!-- A1 -->
<g id="node2" class="node">
<title>A1</title>
<polygon fill="none" stroke="#000000" points="141.7846,-36 65.0024,-36 65.0024,0 141.7846,0 141.7846,-36"/>
<text text-anchor="middle" x="103.3935" y="-15" font-family="Helvetica,sans-Serif" font-size="10.00" fill="#000000">BinaryTree</text>
</g>
<!-- A0&#45;&gt;A1 -->
<g id="edge1" class="edge">
<title>A0&#45;&gt;A1</title>
<path fill="none" stroke="#000000" d="M67.021,-77.0195C75.2095,-63.7325 84.8654,-48.0645 92.1698,-36.2121"/>
<polygon fill="none" stroke="#000000" points="63.9004,-75.4121 61.6334,-85.7616 69.8596,-79.0847 63.9004,-75.4121"/>
</g>
<!-- A1&#45;&gt;A1 -->
<g id="edge2" class="edge">
<title>A1&#45;&gt;A1</title>
<path fill="none" stroke="#000000" d="M141.9115,-33.9833C152.1127,-33.0699 159.839,-27.7422 159.839,-18 159.839,-12.52 157.3943,-8.4368 153.4397,-5.7503"/>
<polygon fill="none" stroke="#000000" points="153.3277,-5.7141 146.3871,-7.6708 141.9115,-2.0167 148.852,-.06 153.3277,-5.7141"/>
</g>
<!-- A2 -->
<g id="node3" class="node">
<title>A2</title>
<polygon fill="none" stroke="#000000" points="196.3448,-122 118.4422,-122 118.4422,-86 196.3448,-86 196.3448,-122"/>
<text text-anchor="middle" x="157.3935" y="-101" font-family="Helvetica,sans-Serif" font-size="10.00" fill="#000000">ClientCode</text>
</g>
<!-- A2&#45;&gt;A1 -->
<g id="edge3" class="edge">
<title>A2&#45;&gt;A1</title>
<path fill="none" stroke="#000000" d="M139.4832,-75.4762C131.356,-62.5329 121.985,-47.6086 114.829,-36.2121"/>
<polygon fill="none" stroke="#000000" points="139.5602,-75.5989 146.1384,-78.5532 145.9415,-85.7616 139.3633,-82.8074 139.5602,-75.5989"/>
</g>
</g>
</svg>
