<?xml version="1.0" encoding="UTF-8" standalone="no"?>
<!DOCTYPE svg PUBLIC "-//W3C//DTD SVG 1.1//EN"
 "http://www.w3.org/Graphics/SVG/1.1/DTD/svg11.dtd">
<!-- Generated by graphviz version 2.40.1 (20161225.0304)
 -->
<!-- Title: G Pages: 1 -->
<svg width="564pt" height="158pt"
 viewBox="0.00 0.00 564.28 158.00" xmlns="http://www.w3.org/2000/svg" xmlns:xlink="http://www.w3.org/1999/xlink">
<g id="graph0" class="graph" transform="scale(1 1) rotate(0) translate(4 154)">
<title>G</title>
<polygon fill="#ffffff" stroke="transparent" points="-4,4 -4,-154 560.281,-154 560.281,4 -4,4"/>
<!-- A0 -->
<g id="node1" class="node">
<title>A0</title>
<polygon fill="none" stroke="#000000" points="335.0645,-150 271.9355,-150 271.9355,-114 335.0645,-114 335.0645,-150"/>
<text text-anchor="middle" x="303.5" y="-129" font-family="Helvetica,sans-Serif" font-size="10.00" fill="#000000">Position</text>
</g>
<!-- A1 -->
<g id="node2" class="node">
<title>A1</title>
<polygon fill="none" stroke="#000000" points=".5,-32 .5,-64 105.5,-64 105.5,-32 .5,-32"/>
<text text-anchor="start" x="10.2115" y="-45" font-family="Helvetica,sans-Serif" font-size="10.00" fill="#000000">BackEndDeveloper</text>
<polygon fill="none" stroke="#000000" points=".5,0 .5,-32 105.5,-32 105.5,0 .5,0"/>
<text text-anchor="start" x="39.1175" y="-13" font-family="Helvetica,sans-Serif" font-size="10.00" fill="#000000">work()</text>
</g>
<!-- A0&#45;&gt;A1 -->
<g id="edge1" class="edge">
<title>A0&#45;&gt;A1</title>
<path fill="none" stroke="#000000" d="M262.0412,-118.8266C223.3376,-106.1213 164.242,-85.6737 114.5,-64 111.3907,-62.6452 108.2198,-61.204 105.0381,-59.7114"/>
<polygon fill="none" stroke="#000000" points="261.3149,-122.2711 271.9073,-122.0426 263.4843,-115.6157 261.3149,-122.2711"/>
</g>
<!-- A2 -->
<g id="node3" class="node">
<title>A2</title>
<polygon fill="none" stroke="#000000" points="123.5,-32 123.5,-64 229.5,-64 229.5,-32 123.5,-32"/>
<text text-anchor="start" x="133.158" y="-45" font-family="Helvetica,sans-Serif" font-size="10.00" fill="#000000">FrontEndDeveloper</text>
<polygon fill="none" stroke="#000000" points="123.5,0 123.5,-32 229.5,-32 229.5,0 123.5,0"/>
<text text-anchor="start" x="162.6175" y="-13" font-family="Helvetica,sans-Serif" font-size="10.00" fill="#000000">work()</text>
</g>
<!-- A0&#45;&gt;A2 -->
<g id="edge2" class="edge">
<title>A0&#45;&gt;A2</title>
<path fill="none" stroke="#000000" d="M272.2364,-107.383C255.6689,-94.3377 235.1171,-78.1552 217.3074,-64.1318"/>
<polygon fill="none" stroke="#000000" points="270.4792,-110.4542 280.5013,-113.8908 274.8098,-104.9544 270.4792,-110.4542"/>
</g>
<!-- A3 -->
<g id="node4" class="node">
<title>A3</title>
<polygon fill="none" stroke="#000000" points="247.5,-32 247.5,-64 359.5,-64 359.5,-32 247.5,-32"/>
<text text-anchor="start" x="257.103" y="-45" font-family="Helvetica,sans-Serif" font-size="10.00" fill="#000000">SalesforceDeveloper</text>
<polygon fill="none" stroke="#000000" points="247.5,0 247.5,-32 359.5,-32 359.5,0 247.5,0"/>
<text text-anchor="start" x="289.6175" y="-13" font-family="Helvetica,sans-Serif" font-size="10.00" fill="#000000">work()</text>
</g>
<!-- A0&#45;&gt;A3 -->
<g id="edge3" class="edge">
<title>A0&#45;&gt;A3</title>
<path fill="none" stroke="#000000" d="M303.5,-103.5673C303.5,-91.3521 303.5,-77.0124 303.5,-64.3894"/>
<polygon fill="none" stroke="#000000" points="300.0001,-103.6584 303.5,-113.6585 307.0001,-103.6585 300.0001,-103.6584"/>
</g>
<!-- A4 -->
<g id="node5" class="node">
<title>A4</title>
<polygon fill="none" stroke="#000000" points="378.5,-32 378.5,-64 465.5,-64 465.5,-32 378.5,-32"/>
<text text-anchor="start" x="388.382" y="-45" font-family="Helvetica,sans-Serif" font-size="10.00" fill="#000000">DefaultPosition</text>
<polygon fill="none" stroke="#000000" points="378.5,0 378.5,-32 465.5,-32 465.5,0 378.5,0"/>
<text text-anchor="start" x="408.1175" y="-13" font-family="Helvetica,sans-Serif" font-size="10.00" fill="#000000">work()</text>
</g>
<!-- A0&#45;&gt;A4 -->
<g id="edge4" class="edge">
<title>A0&#45;&gt;A4</title>
<path fill="none" stroke="#000000" d="M332.5481,-107.383C347.9415,-94.3377 367.0369,-78.1552 383.5844,-64.1318"/>
<polygon fill="none" stroke="#000000" points="330.2351,-104.7554 324.8689,-113.8908 334.7607,-110.0956 330.2351,-104.7554"/>
</g>
<!-- A5 -->
<g id="node6" class="node">
<title>A5</title>
<polygon fill="none" stroke="#000000" points="556.0633,-50 482.9367,-50 482.9367,-14 556.0633,-14 556.0633,-50"/>
<text text-anchor="middle" x="519.5" y="-29" font-family="Helvetica,sans-Serif" font-size="10.00" fill="#000000">Developer</text>
</g>
<!-- A0&#45;&gt;A5 -->
<g id="edge5" class="edge">
<title>A0&#45;&gt;A5</title>
<path fill="none" stroke="#000000" d="M335.0886,-121.9887C370.1939,-110.2878 428.0551,-89.2715 474.5,-64 478.4366,-61.858 482.4362,-59.4312 486.3444,-56.895"/>
<polygon fill="none" stroke="#000000" points="486.4613,-56.8151 489.1596,-50.1279 496.3703,-50.0466 493.672,-56.7338 486.4613,-56.8151"/>
</g>
</g>
</svg>
